<?xml version="1.0" encoding="UTF-8"?>
<svg id="Ebene_1" data-name="Ebene 1" xmlns="http://www.w3.org/2000/svg" xmlns:xlink="http://www.w3.org/1999/xlink" version="1.1" viewBox="0 0 233.8580017 102.6370087">
  <defs>
    <style>
      .cls-1 {
        clip-path: url(#clippath);
      }

      .cls-2 {
        fill: none;
      }

      .cls-2, .cls-3, .cls-4, .cls-5 {
        stroke-width: 0px;
      }

      .cls-6 {
        clip-path: url(#clippath-1);
      }

      .cls-7 {
        clip-path: url(#clippath-4);
      }

      .cls-8 {
        clip-path: url(#clippath-3);
      }

      .cls-9 {
        clip-path: url(#clippath-2);
      }

      .cls-10 {
        clip-path: url(#clippath-7);
      }

      .cls-11 {
        clip-path: url(#clippath-8);
      }

      .cls-12 {
        clip-path: url(#clippath-6);
      }

      .cls-13 {
        clip-path: url(#clippath-5);
      }

      .cls-14 {
        clip-path: url(#clippath-9);
      }

      .cls-15 {
        clip-path: url(#clippath-10);
      }

      .cls-16 {
        clip-path: url(#clippath-11);
      }

      .cls-3 {
        fill: #005da8;
      }

      .cls-4 {
        fill: #fff;
      }

      .cls-5 {
        fill: #eb6909;
      }
    </style>
    <clipPath id="clippath">
      <rect class="cls-2" y=".0000076" width="233.8580017" height="102.637001"/>
    </clipPath>
    <clipPath id="clippath-1">
      <rect class="cls-2" y=".0000076" width="233.8580017" height="102.637001"/>
    </clipPath>
    <clipPath id="clippath-2">
      <rect class="cls-2" y=".0000076" width="233.8580017" height="102.637001"/>
    </clipPath>
    <clipPath id="clippath-3">
      <rect class="cls-2" y=".0000076" width="233.8580017" height="102.637001"/>
    </clipPath>
    <clipPath id="clippath-4">
      <rect class="cls-2" y=".0000076" width="233.8580017" height="102.637001"/>
    </clipPath>
    <clipPath id="clippath-5">
      <rect class="cls-2" y=".0000076" width="233.8580017" height="102.637001"/>
    </clipPath>
    <clipPath id="clippath-6">
      <rect class="cls-2" y=".0000076" width="233.8580017" height="102.637001"/>
    </clipPath>
    <clipPath id="clippath-7">
      <rect class="cls-2" y=".0000076" width="233.8580017" height="102.637001"/>
    </clipPath>
    <clipPath id="clippath-8">
      <rect class="cls-2" y=".0000076" width="233.8580017" height="102.637001"/>
    </clipPath>
    <clipPath id="clippath-9">
      <rect class="cls-2" y=".0000076" width="233.8580017" height="102.637001"/>
    </clipPath>
    <clipPath id="clippath-10">
      <rect class="cls-2" y=".0000076" width="233.8580017" height="102.637001"/>
    </clipPath>
    <clipPath id="clippath-11">
      <rect class="cls-2" y=".0000076" width="233.8580017" height="102.637001"/>
    </clipPath>
  </defs>
  <g class="cls-1">
    <path class="cls-3" d="M47.0131989,49.593708c-.3619995.1329994-.9790001.3180008-1.5270004.3180008-1.9500008,0-2.7709999-1.4830017-2.7709999-3.151001,0-1.9230003,1.1209984-3.132,2.7280006-3.132.5279999,0,1.0229988.0709991,1.4459991.2729988v.776001c-.4669991-.237999-.987999-.3790016-1.4379997-.3790016-1.0060005,0-1.9230003.8040009-1.9230003,2.3030014,0,1.5890007.6339989,2.6389999,1.9760017,2.6389999.2469978,0,.5639992-.0629997.7679977-.1669998v-1.9420013h-1.0329971v-.6709976h1.7739983v3.1329994Z"/>
    <path class="cls-3" d="M50.6287003,47.2556076c0-.9370003-.2900009-1.4029999-.882-1.4029999-.4759979,0-.8999977.3530006-.9179993,1.4029999h1.7999992ZM48.828701,47.8196068c0,1.0419998.4059982,1.526001,1.2270012,1.526001.3689995,0,.7770004-.1830025,1.0319977-.3689995l.0360031.6699982c-.3540039.1679993-.8120003.2649994-1.262001.2649994-1.1920013,0-1.8100014-.901001-1.8100014-2.3120003,0-1.4119987.618-2.3120003,1.7390022-2.3120003,1.0149994,0,1.5789986.8120003,1.5789986,2.1350021v.3969994h-2.5410004Z"/>
    <path class="cls-3" d="M52.2503014,46.3197098c0-.3269997-.026001-.6529999-.0349998-.9700012h.7150002l.026001.6690025h.0179977c.2380028-.5110016.618-.7320023,1.1380005-.7320023.7849998,0,1.3149986.4510002,1.3149986,1.4389992v3.1230011h-.7409973v-2.9029999c0-.7150002-.2649994-1.0239983-.7420006-1.0239983-.5820007,0-.9539986.4059982-.9539986,1.218998v2.7080002h-.7400017v-3.5289993Z"/>
    <path class="cls-3" d="M58.1520996,49.3112106c.7060013,0,1.0330009-.5820007,1.0330009-1.7110023,0-1.1300011-.3269997-1.7130013-1.0330009-1.7130013s-1.0330009.5830002-1.0330009,1.7130013c0,1.1290016.3269997,1.7110023,1.0330009,1.7110023M58.1520996,45.2872086c1.1910019,0,1.8089981.9000015,1.8089981,2.3129997,0,1.4099998-.6179962,2.3110008-1.8089981,2.3110008s-1.8089981-.901001-1.8089981-2.3110008c0-1.4129982.6179962-2.3129997,1.8089981-2.3129997"/>
    <path class="cls-3" d="M60.6827011,48.9760094c.3349991.2029991.6879997.3349991,1.0589981.3349991.5650024,0,.8560028-.2910004.8560028-.6359978,0-.3080025-.1599998-.5200005-.5730019-.7060013l-.4949989-.2200012c-.644001-.2910004-.882-.5820007-.882-1.1559982,0-.7410011.572998-1.3059998,1.447998-1.3059998.3690033,0,.696003.0629997.9520035.1599998l-.0349998.6349983c-.2300034-.1069984-.5480003-.1949997-.8830032-.1949997-.4849968,0-.7409973.2659988-.7409973.618,0,.3619995.2639999.5639992.7589989.7600021l.2639999.1049995c.5470009.2199974.8909988.5909996.8909988,1.1469994,0,.776001-.4139977,1.3950005-1.4459991,1.3950005-.4679985,0-.8909988-.0979996-1.2179985-.2660027l.0439987-.6699982Z"/>
    <path class="cls-3" d="M64.0081024,48.9760094c.3349991.2029991.6880035.3349991,1.0589981.3349991.5650024,0,.8560028-.2910004.8560028-.6359978,0-.3080025-.1600037-.5200005-.572998-.7060013l-.4950027-.2200012c-.6439972-.2910004-.882-.5820007-.882-1.1559982,0-.7410011.5730019-1.3059998,1.4480019-1.3059998.3689957,0,.6959991.0629997.9519958.1599998l-.0339966.6349983c-.2300034-.1069984-.5490036-.1949997-.8840027-.1949997-.4850006,0-.7409973.2659988-.7409973.618,0,.3619995.2639999.5639992.7589951.7600021l.2639999.1049995c.5470047.2199974.8920059.5909996.8920059,1.1469994,0,.776001-.4150009,1.3950005-1.4469986,1.3950005-.4680023,0-.8910065-.0979996-1.2180023-.2660027l.0439987-.6699982Z"/>
    <path class="cls-3" d="M69.901001,47.2556076c0-.9370003-.2910004-1.4029999-.8820038-1.4029999-.4759979,0-.9000015.3530006-.9179993,1.4029999h1.8000031ZM68.1009979,47.8196068c0,1.0419998.4059982,1.526001,1.2269974,1.526001.3690033,0,.7770004-.1830025,1.0320053-.3689995l.0359955.6699982c-.3539963.1679993-.8129959.2649994-1.262001.2649994-1.1919937,0-1.8099976-.901001-1.8099976-2.3120003,0-1.4119987.6180038-2.3120003,1.7389984-2.3120003,1.0139999,0,1.5790024.8120003,1.5790024,2.1350021v.3969994h-2.5410004Z"/>
    <path class="cls-3" d="M71.5231018,46.3197098c0-.3269997-.026001-.6529999-.0350037-.9700012h.715004l.026001.6690025h.0179977c.237999-.5110016.6180038-.7320023,1.1380005-.7320023.7850037,0,1.3150024.4510002,1.3150024,1.4389992v3.1230011h-.7410049v-2.9029999c0-.7150002-.2649994-1.0239983-.7419968-1.0239983-.5820007,0-.9540024.4059982-.9540024,1.218998v2.7080002h-.7399979v-3.5289993Z"/>
    <path class="cls-3" d="M75.6069031,48.9760094c.3349991.2029991.6880035.3349991,1.0589981.3349991.5650024,0,.8560028-.2910004.8560028-.6359978,0-.3080025-.1600037-.5200005-.572998-.7060013l-.4950027-.2200012c-.6439972-.2910004-.8820038-.5820007-.8820038-1.1559982,0-.7410011.5730057-1.3059998,1.4480057-1.3059998.3689957,0,.6959991.0629997.9519958.1599998l-.034996.6349983c-.2300034-.1069984-.5480042-.1949997-.8830032-.1949997-.4850006,0-.7409973.2659988-.7409973.618,0,.3619995.2639999.5639992.7589951.7600021l.2639999.1049995c.5470047.2199974.8920059.5909996.8920059,1.1469994,0,.776001-.4150009,1.3950005-1.4469986,1.3950005-.4680023,0-.8910065-.0979996-1.2180023-.2660027l.0439987-.6699982Z"/>
    <path class="cls-3" d="M81.7734985,46.1342087c-.2559967-.1409988-.5110016-.2120018-.8550034-.2120018-.723999,0-1.2360001.5030022-1.2360001,1.7220001,0,1.0400009.4940033,1.632,1.2170029,1.632.3540039,0,.6539993-.1069984.9090042-.2389984l.0359955.6800003c-.2210007.0970001-.6169968.1940002-.9449997.1940002-1.3409958,0-1.9929962-.9970016-1.9929962-2.2670021,0-1.4569969.7579956-2.3569984,2.0119934-2.3569984.3090057,0,.6520004.0620003.890007.177002l-.0350037.6699982Z"/>
    <path class="cls-3" d="M82.6102982,43.2311096h.7399979v2.7360001h.0180054c.1940002-.3790016.5839996-.6800003,1.1039963-.6800003.7850037,0,1.3150024.4500008,1.3150024,1.4379997v3.1240005h-.7410049v-2.9029999c0-.7150002-.2649994-1.0239983-.7419968-1.0239983-.5820007,0-.9540024.4059982-.9540024,1.2179985v2.7089996h-.7399979v-6.618Z"/>
    <path class="cls-3" d="M89.1916962,47.6433105c-.1319962-.0180016-.3170013-.0180016-.5199966-.0180016-.8740005,0-1.2890015.4160004-1.2890015.9360008,0,.4770012.2470016.7849998.7600021.7849998.6439972,0,1.048996-.5200005,1.048996-1.1389999v-.5639992ZM87.0376968,45.6573105c.3730011-.237999.8310013-.3709984,1.2730026-.3709984.6609955,0,1.0569992.2829971,1.1999969.4239998.1930008.1940002.3880005.4679985.3880005,1.1040001v2.3459969c0,.2650032.0179977.531002.0339966.689003h-.6699982l-.0439987-.6090012h-.0179977c-.2020035.3440018-.5740051.6720009-1.2630005.6720009-.7399979,0-1.2980042-.4330025-1.2980042-1.2989998,0-.8730011.5740051-1.5170021,2.1200027-1.5170021h.4319992v-.2029991c0-.3359985-.0250015-.5299988-.1679993-.723999-.1490021-.2019997-.4410019-.281002-.75-.281002-.4599991,0-.9000015.1850014-1.1559982.4659996l-.0800018-.6969986Z"/>
    <path class="cls-3" d="M91.2813034,45.9490089h-.7139969v-.598999h.7139969v-1.007c0-.7330017.3349991-1.2170029,1.1200027-1.2170029.2049942,0,.4150009.026001.5830002.0700035v.6339989c-.090004-.0699997-.2460022-.1049995-.4240036-.1049995-.413002,0-.538002.2299995-.538002.6809998v.9440002h.8110046v.598999h-.8110046v3.901001h-.7409973v-3.901001Z"/>
    <path class="cls-3" d="M95.7194977,49.7969093c-.1760025.0620003-.4250031.1150017-.6259995.1150017-.6800003,0-1.0429993-.2750015-1.0429993-1.0680008v-2.8950005h-.715004v-.6000023h.715004v-.9179993l.7419968-.2199974v1.1379967h.927002v.6000023h-.927002v2.6570015c0,.5109978.1320038.704998.4680023.704998.1849976,0,.3170013-.0519981.4589996-.1139984v.5999985Z"/>
  </g>
  <rect class="cls-3" x="96.4769974" y="43.2300072" width=".7399979" height="6.618"/>
  <path class="cls-3" d="M98.4179993,49.8490105h.7389984v-4.5h-.7389984v4.5ZM98.3820038,44.3780098h.8119965v-.882h-.8119965v.882Z"/>
  <g class="cls-6">
    <path class="cls-3" d="M102.9616013,46.1342087c-.2570038-.1409988-.512001-.2120018-.8560028-.2120018-.7229996,0-1.2360001.5030022-1.2360001,1.7220001,0,1.0400009.4940033,1.632,1.2180023,1.632.3529968,0,.6539993-.1069984.9090042-.2389984l.0339966.6800003c-.2200012.0970001-.6169968.1940002-.9430008.1940002-1.3420029,0-1.9950027-.9970016-1.9950027-2.2670021,0-1.4569969.7590027-2.3569984,2.0130005-2.3569984.3080063,0,.6520004.0620003.8910065.177002l-.0350037.6699982Z"/>
    <path class="cls-3" d="M103.7977982,43.2311096h.7409973v2.7360001h.0160065c.1949997-.3790016.5839996-.6800003,1.1049957-.6800003.7850037,0,1.3150024.4500008,1.3150024,1.4379997v3.1240005h-.7410049v-2.9029999c0-.7150002-.2659988-1.0239983-.7419968-1.0239983-.5830002,0-.9530029.4059982-.9530029,1.2179985v2.7089996h-.7409973v-6.618Z"/>
    <path class="cls-3" d="M110.4586029,47.2556076c0-.9370003-.2910004-1.4029999-.8830032-1.4029999-.4749985,0-.9000015.3530006-.9189987,1.4029999h1.802002ZM108.656601,47.8196068c0,1.0419998.4069977,1.526001,1.2289963,1.526001.3690033,0,.776001-.1830025,1.0310059-.3689995l.0359955.6699982c-.3539963.1679993-.8129959.2649994-1.262001.2649994-1.1929932,0-1.8099976-.901001-1.8099976-2.3120003,0-1.4119987.6170044-2.3120003,1.7389984-2.3120003,1.0139999,0,1.5780029.8120003,1.5780029,2.1350021v.3969994h-2.5410004Z"/>
  </g>
  <polygon class="cls-3" points="114.0680008 43.6897087 116.8209991 43.6897087 116.8209991 44.3597069 114.8440018 44.3597069 114.8440018 46.3187103 116.723999 46.3187103 116.723999 46.9917068 114.8440018 46.9917068 114.8440018 49.850708 114.0680008 49.850708 114.0680008 43.6897087"/>
  <path class="cls-3" d="M117.7559967,49.8490105h.7389984v-4.5h-.7389984v4.5ZM117.7200012,44.3780098h.8119965v-.882h-.8119965v.882Z"/>
  <g class="cls-9">
    <path class="cls-3" d="M119.6594009,46.3197098c0-.3269997-.0250015-.6529999-.0350037-.9700012h.715004l.0270004.6690025h.0179977c.2369995-.5110016.6180038-.7320023,1.137001-.7320023.7850037,0,1.3150024.4510002,1.3150024,1.4389992v3.1230011h-.7410049v-2.9029999c0-.7150002-.2639999-1.0239983-.7419968-1.0239983-.5810013,0-.9530029.4059982-.9530029,1.218998v2.7080002h-.7409973v-3.5289993Z"/>
    <path class="cls-3" d="M126.2422028,47.6433105c-.1340027-.0180016-.3190002-.0180016-.5220032-.0180016-.8739929,0-1.2869949.4160004-1.2869949.9360008,0,.4770012.2449951.7849998.7579956.7849998.6440048,0,1.0510025-.5200005,1.0510025-1.1389999v-.5639992ZM124.0882034,45.6573105c.3710022-.237999.8290024-.3709984,1.2710037-.3709984.6609955,0,1.0579987.2829971,1.1999969.4239998.1949997.1940002.3880005.4679985.3880005,1.1040001v2.3459969c0,.2650032.0179977.531002.0339966.689003h-.6699982l-.0439987-.6090012h-.0179977c-.2020035.3440018-.5720062.6720009-1.2610016.6720009-.7410049,0-1.2970047-.4330025-1.2970047-1.2989998,0-.8730011.5740051-1.5170021,2.1170044-1.5170021h.4339981v-.2029991c0-.3359985-.0270004-.5299988-.1679993-.723999-.151001-.2019997-.4430008-.281002-.75-.281002-.4599991,0-.9000015.1850014-1.1579971.4659996l-.0780029-.6969986Z"/>
    <path class="cls-3" d="M128.0402985,46.3197098c0-.3269997-.0269928-.6529999-.0359955-.9700012h.7159882l.0250092.6690025h.0180054c.2389984-.5110016.6179962-.7320023,1.1389923-.7320023.7850037,0,1.3139954.4510002,1.3139954,1.4389992v3.1230011h-.7419891v-2.9029999c0-.7150002-.2640076-1.0239983-.7400055-1.0239983-.5830078,0-.9550018.4059982-.9550018,1.218998v2.7080002h-.7389984v-3.5289993Z"/>
  </g>
  <polygon class="cls-3" points="134.8670044 45.3491096 134.8670044 46.0191078 132.7850037 49.2141113 134.9130096 49.2141113 134.9130096 49.8491096 132.0270081 49.8491096 132.0270081 49.1781082 134.1100006 45.984108 132.0980072 45.984108 132.0980072 45.3491096 134.8670044 45.3491096"/>
  <g class="cls-8">
    <path class="cls-3" d="M140.3910065,49.593708c-.3630066.1329994-.9799957.3180008-1.5269928.3180008-1.951004,0-2.7710114-1.4830017-2.7710114-3.151001,0-1.9230003,1.1210022-3.132,2.7259979-3.132.5299988,0,1.0240021.0709991,1.4480133.2729988v.776001c-.4680023-.237999-.9890137-.3790016-1.4390106-.3790016-1.0059967,0-1.9230042.8040009-1.9230042,2.3030014,0,1.5890007.6340027,2.6389999,1.9760132,2.6389999.246994,0,.5639954-.0629997.7689972-.1669998v-1.9420013h-1.0330048v-.6709976h1.7740021v3.1329994Z"/>
    <path class="cls-3" d="M141.6318054,46.3197098c0-.3269997-.0249939-.6529999-.0350037-.9700012h.7149963l.0270081.7050018h.0160065c.2389984-.5470009.6179962-.7680016,1.2809906-.7680016v.7320023c-.0890045-.0160027-.1860046-.026001-.2819977-.026001-.5740051,0-.9810028.4949989-.9810028,1.4749985v2.3810005h-.7409973v-3.5289993Z"/>
    <path class="cls-3" d="M147.5256042,48.8790092c0,.3269997.0249939.6529999.0350037.9700012h-.7149963l-.0270081-.670002h-.0160065c-.2389984.5110016-.6179962.7330017-1.1389923.7330017-.7850037,0-1.3150024-.4510002-1.3150024-1.4400024v-3.1219978h.7409973v2.9029999c0,.7150002.2640076,1.0239983.7420044,1.0239983.5830078,0,.9530029-.4069977.9530029-1.218998v-2.7080002h.7409973v3.5289993Z"/>
    <path class="cls-3" d="M150.3566895,49.3113098c.6809998,0,.9880066-.5830002.9880066-1.7109985,0-1.1300011-.3070068-1.7130013-.9880066-1.7130013-.6799927,0-.9899902.5830002-.9899902,1.7130013,0,1.1279984.3099976,1.7109985.9899902,1.7109985M148.6266937,46.1783104c0-.2739983-.026001-.5550003-.0359955-.8289986h.7149963l.0269928.6609993h.0180054c.1940002-.3530006.529007-.7229996,1.1820068-.7229996.9269867,0,1.5540009.7589989,1.5540009,2.3129997,0,1.5519981-.6270142,2.3110008-1.5540009,2.3110008-.5100098,0-.8460083-.2030029-1.1470032-.6790009h-.0189972v2.5229988h-.7400055v-5.5769997Z"/>
    <path class="cls-3" d="M154.7127991,49.3113098c.6809998,0,.9899902-.5830002.9899902-1.7109985,0-1.1300011-.3089905-1.7130013-.9899902-1.7130013-.6800079,0-.9880066.5830002-.9880066,1.7130013,0,1.1279984.3079987,1.7109985.9880066,1.7109985M152.9837952,46.1783104c0-.2739983-.0269928-.5550003-.0370026-.8289986h.7169952l.0250092.6609993h.0180054c.1959991-.3530006.5309906-.7229996,1.1819916-.7229996.9290009,0,1.5550079.7589989,1.5550079,2.3129997,0,1.5519981-.6260071,2.3110008-1.5550079,2.3110008-.5099945,0-.845993-.2030029-1.1470032-.6790009h-.0169983v2.5229988h-.7409973v-5.5769997Z"/>
    <path class="cls-3" d="M159.7505035,47.2556076c0-.9370003-.2910004-1.4029999-.8829956-1.4029999-.4750061,0-.9000092.3530006-.9170074,1.4029999h1.8000031ZM157.9505005,47.8196068c0,1.0419998.4069977,1.526001,1.227005,1.526001.368988,0,.776001-.1830025,1.0319977-.3689995l.0350037.6699982c-.3540039.1679993-.8120117.2649994-1.2620087.2649994-1.1909943,0-1.8099976-.901001-1.8099976-2.3120003,0-1.4119987.6190033-2.3120003,1.7400055-2.3120003,1.0139923,0,1.5789948.8120003,1.5789948,2.1350021v.3969994h-2.5410004Z"/>
  </g>
  <polygon class="cls-3" points="42.5208015 53.2844086 43.3678017 53.2844086 44.797802 58.3054085 44.8158035 58.3054085 46.3248024 53.2844086 47.1007996 53.2844086 45.1678009 59.4454079 44.3917999 59.4454079 42.5208015 53.2844086"/>
  <g class="cls-7">
    <path class="cls-3" d="M49.0751991,58.9069061c.7060013,0,1.0330009-.5830002,1.0330009-1.711998,0-1.1300011-.3269997-1.7140007-1.0330009-1.7140007s-1.0330009.5839996-1.0330009,1.7140007c0,1.1289978.3269997,1.711998,1.0330009,1.711998M49.0751991,54.8829079c1.1909981,0,1.8090019.8989983,1.8090019,2.3120003,0,1.4109993-.6180038,2.3110008-1.8090019,2.3110008s-1.8090019-.9000015-1.8090019-2.3110008c0-1.413002.6180038-2.3120003,1.8090019-2.3120003"/>
  </g>
  <rect class="cls-3" x="51.8450012" y="52.8250084" width=".7420006" height="6.6199989"/>
  <polygon class="cls-3" points="56.017601 54.9442101 56.8826027 54.9442101 55.1175995 56.9552116 57.0405998 59.4432106 56.1236 59.4432106 54.4906006 57.1762085 54.4736023 57.1762085 54.4736023 59.4432106 53.7316017 59.4432106 53.7316017 52.8252106 54.4736023 52.8252106 54.4736023 56.753212 56.017601 54.9442101"/>
  <g class="cls-13">
    <path class="cls-3" d="M57.6568985,58.5716095c.3349991.2029991.6879997.3349991,1.0589981.3349991.5650024,0,.8560028-.2910004.8560028-.6359978,0-.3090019-.1599998-.5209999-.5730019-.7060013l-.4949989-.2210007c-.644001-.2910004-.882-.5809975-.882-1.1559982,0-.7410011.572998-1.3050003,1.447998-1.3050003.3690033,0,.696003.0620003.9520035.1590004l-.0340004.6349983c-.2310028-.105999-.5489998-.1959991-.8840027-.1959991-.4849968,0-.7409973.2680016-.7409973.6199989,0,.3610001.2639999.5629997.7589989.7589989l.2639999.1050034c.5470009.2199974.8919983.5919991.8919983,1.1479988,0,.776001-.4149971,1.394001-1.4469986,1.394001-.4679985,0-.8909988-.0970001-1.2179985-.2650032l.0439987-.6699982Z"/>
    <path class="cls-3" d="M62.7909012,58.9070091c.6809998,0,.9889984-.5839996.9889984-1.7120018,0-1.1299973-.3079987-1.7140007-.9889984-1.7140007-.6800003,0-.9889984.5840034-.9889984,1.7140007,0,1.1280022.3089981,1.7120018.9889984,1.7120018M61.0619011,52.8250084h.7400017v2.7369995h.0189972c.3000031-.4780006.6360016-.6790009,1.1459999-.6790009.9280014,0,1.5540047.757,1.5540047,2.3120003,0,1.5510025-.6260033,2.3110008-1.5540047,2.3110008-.6520004,0-.9869995-.3689995-1.1819992-.7229996h-.0169983l-.026001.6609993h-.7159996c.0099983-.2729988.0359993-.5559998.0359993-.8279991v-5.7910004Z"/>
    <path class="cls-3" d="M67.7755966,57.2380104c-.1330032-.019001-.3180008-.019001-.5209961-.019001-.8740005,0-1.288002.4169998-1.288002.9370003,0,.4760017.2470016.7849998.7589951.7849998.6440048,0,1.0500031-.5200005,1.0500031-1.1389999v-.5639992ZM65.6215973,55.2520103c.3720016-.2369995.8300018-.3699989,1.2720032-.3699989.6609955,0,1.0579987.2819977,1.1989975.4230003.1949997.1949997.3889999.4679985.3889999,1.1040001v2.3459969c0,.2660027.0179977.531002.0339966.689003h-.6689987l-.0449982-.6080017h-.0179977c-.2020035.3440018-.5730057.6710014-1.2610016.6710014-.7409973,0-1.2980042-.4319992-1.2980042-1.2980003,0-.8740005.5740051-1.5170021,2.1190033-1.5170021h.4319992v-.204998c0-.3349991-.026001-.5279999-.1679993-.7229996-.1500015-.2019997-.4420013-.2820015-.75-.2820015-.4589996,0-.9000015.1860008-1.1559982.4669991l-.0800018-.6969986Z"/>
    <path class="cls-3" d="M69.5736008,55.9152069c0-.3289986-.026001-.6539993-.0350037-.9710007h.715004l.026001.670002h.0179977c.237999-.5110016.6180038-.7320023,1.1380005-.7320023.7850037,0,1.3150024.4500008,1.3150024,1.4379997v3.1230011h-.7410049v-2.9020004c0-.7159996-.2649994-1.0239983-.7419968-1.0239983-.5820007,0-.9540024.4049988-.9540024,1.2179985v2.7080002h-.7399979v-3.5279999Z"/>
  </g>
  <polygon class="cls-3" points="76.1548004 54.9442101 77.0197983 54.9442101 75.2547989 56.9552116 77.1788025 59.4432106 76.2608032 59.4432106 74.6278 57.1762085 74.6108017 57.1762085 74.6108017 59.4432106 73.8687973 59.4432106 73.8687973 52.8252106 74.6108017 52.8252106 74.6108017 56.753212 76.1548004 54.9442101"/>
  <g class="cls-12">
    <path class="cls-3" d="M79.9825058,56.8503113c0-.9350014-.2910004-1.4029999-.8820038-1.4029999-.4759979,0-.9000015.3540001-.9179993,1.4029999h1.8000031ZM78.1825027,57.4143105c0,1.0429993.4059982,1.5270004,1.2269974,1.5270004.3690033,0,.7770004-.1850014,1.0320053-.3689995l.0359955.6689987c-.3539963.1679993-.8119965.2649994-1.262001.2649994-1.1919937,0-1.8099976-.8999977-1.8099976-2.3120003,0-1.4119987.6180038-2.310997,1.7389984-2.310997,1.0139999,0,1.5790024.8119965,1.5790024,2.1339989v.3969994h-2.5410004Z"/>
    <path class="cls-3" d="M81.604599,55.9152069c0-.3289986-.026001-.6539993-.0350037-.9710007h.715004l.026001.670002h.0179977c.237999-.5110016.6180038-.7320023,1.1380005-.7320023.7850037,0,1.3150024.4500008,1.3150024,1.4379997v3.1230011h-.7410049v-2.9020004c0-.7159996-.2649994-1.0239983-.7419968-1.0239983-.5820007,0-.9540024.4049988-.9540024,1.2179985v2.7080002h-.7399979v-3.5279999Z"/>
    <path class="cls-3" d="M88.1492004,56.02071h.6019974c.8280029,0,1.1470032-.5480003,1.1470032-1.0859985,0-.6879997-.4490051-1.0149994-1.1289978-1.0149994h-.6200027v2.1009979ZM87.3731995,53.2837105h1.5790024c.6549988,0,1.0149994.1590004,1.2979965.4249992.3190002.2989998.4589996.723999.4589996,1.1730003,0,.6539993-.3079987,1.2789993-1.2169952,1.473999v.0170021c.3689957.0709991.5459976.2480011.6699982.5999985l.8659973,2.4720001h-.8399963l-.7050018-2.0830002c-.177002-.512001-.3980026-.7059975-.9800034-.7059975h-.3539963v2.7889977h-.776001v-6.1609993Z"/>
    <path class="cls-3" d="M94.1856003,57.2380104c-.1340027-.019001-.3190002-.019001-.5219955-.019001-.8740005,0-1.2870026.4169998-1.2870026.9370003,0,.4760017.2449951.7849998.7579956.7849998.6440048,0,1.0510025-.5200005,1.0510025-1.1389999v-.5639992ZM92.031601,55.2520103c.3710022-.2369995.8290024-.3699989,1.2710037-.3699989.6609955,0,1.0579987.2819977,1.1999969.4230003.1949997.1949997.3880005.4679985.3880005,1.1040001v2.3459969c0,.2660027.0179977.531002.0339966.689003h-.6699982l-.0439987-.6080017h-.0179977c-.2020035.3440018-.5720062.6710014-1.2610016.6710014-.7410049,0-1.2970047-.4319992-1.2970047-1.2980003,0-.8740005.5740051-1.5170021,2.1170044-1.5170021h.4339981v-.204998c0-.3349991-.0270004-.5279999-.1679993-.7229996-.151001-.2019997-.4430008-.2820015-.75-.2820015-.4599991,0-.9000015.1860008-1.1579971.4669991l-.0780029-.6969986Z"/>
  </g>
  <path class="cls-3" d="M96.0189972,59.4440079h.7409973v-4.5h-.7409973v4.5ZM95.9830017,53.9740105h.8119965v-.882h-.8119965v.882Z"/>
  <g class="cls-10">
    <path class="cls-3" d="M98.2501984,55.5436096h-.7160034v-.598999h.7160034v-1.0060005c0-.7330017.3349991-1.2190018,1.1200027-1.2190018.2029953,0,.4150009.0279999.5830002.071003v.6349983c-.090004-.0709991-.2460022-.1049995-.4240036-.1049995-.4150009,0-.538002.2280006-.538002.6809998v.9430008h.8110046v.598999h-.8110046v3.901001h-.7409973v-3.901001Z"/>
    <path class="cls-3" d="M101.0103989,55.5436096h-.7139969v-.598999h.7139969v-1.0060005c0-.7330017.3349991-1.2190018,1.1200027-1.2190018.2049942,0,.4150009.0279999.5830002.071003v.6349983c-.0880051-.0709991-.2460022-.1049995-.4220047-.1049995-.4150009,0-.5400009.2280006-.5400009.6809998v.9430008h.8130035v.598999h-.8130035v3.901001h-.7409973v-3.901001Z"/>
    <path class="cls-3" d="M105.5540009,56.8503113c0-.9350014-.2910004-1.4029999-.8810043-1.4029999-.4769974,0-.9000015.3540001-.9189987,1.4029999h1.8000031ZM103.7539978,57.4143105c0,1.0429993.4069977,1.5270004,1.2269974,1.5270004.3700027,0,.7770004-.1850014,1.0320053-.3689995l.034996.6689987c-.3519974.1679993-.810997.2649994-1.2610016.2649994-1.1919937,0-1.8089981-.8999977-1.8089981-2.3120003,0-1.4119987.6170044-2.310997,1.737999-2.310997,1.0139999,0,1.5790024.8119965,1.5790024,2.1339989v.3969994h-2.5410004Z"/>
  </g>
  <path class="cls-3" d="M107.2129974,59.4440079h.7389984v-4.5h-.7389984v4.5ZM107.177002,53.9740105h.8130035v-.882h-.8130035v.882Z"/>
  <g class="cls-11">
    <path class="cls-3" d="M108.9047012,58.5716095c.3349991.2029991.6880035.3349991,1.0589981.3349991.564003,0,.8560028-.2910004.8560028-.6359978,0-.3090019-.1590042-.5209999-.5739975-.7060013l-.4940033-.2210007c-.6439972-.2910004-.8820038-.5809975-.8820038-1.1559982,0-.7410011.5720062-1.3050003,1.4480057-1.3050003.3679962,0,.6969986.0620003.9519958.1590004l-.0339966.6349983c-.2300034-.105999-.5500031-.1959991-.8840027-.1959991-.4850006,0-.7399979.2680016-.7399979.6199989,0,.3610001.2639999.5629997.7579956.7589989l.2639999.1050034c.5480042.2199974.8930054.5919991.8930054,1.1479988,0,.776001-.4160004,1.394001-1.447998,1.394001-.4670029,0-.8910065-.0970001-1.2180023-.2650032l.0439987-.6699982Z"/>
    <path class="cls-3" d="M114.7893066,56.8503113c0-.9350014-.2910004-1.4029999-.8830032-1.4029999-.4759979,0-.9000015.3540001-.9169998,1.4029999h1.8000031ZM112.9893036,57.4143105c0,1.0429993.4069977,1.5270004,1.2269974,1.5270004.3690033,0,.776001-.1850014,1.0320053-.3689995l.034996.6689987c-.3539963.1679993-.8119965.2649994-1.262001.2649994-1.1909943,0-1.8099976-.8999977-1.8099976-2.3120003,0-1.4119987.6190033-2.310997,1.7399979-2.310997,1.0139999,0,1.5790024.8119965,1.5790024,2.1339989v.3969994h-2.5410004Z"/>
    <path class="cls-3" d="M116.4110031,55.9152069c0-.3289986-.0250015-.6539993-.0350037-.9710007h.715004l.0270004.670002h.0159988c.2389984-.5110016.6180038-.7320023,1.1389999-.7320023.7850037,0,1.3150024.4500008,1.3150024,1.4379997v3.1230011h-.7410049v-2.9020004c0-.7159996-.2639999-1.0239983-.7419968-1.0239983-.5830002,0-.9530029.4049988-.9530029,1.2179985v2.7080002h-.7409973v-3.5279999Z"/>
    <path class="cls-3" d="M122.3920975,58.9070091c.6810074,0,.9880066-.5839996.9880066-1.7120018,0-1.1299973-.3069992-1.7140007-.9880066-1.7140007-.6799927,0-.9899979.5840034-.9899979,1.7140007,0,1.1280022.3100052,1.7120018.9899979,1.7120018M120.6631012,52.8250084h.7389984v2.7369995h.0190048c.3009949-.4780006.6369934-.6790009,1.1469955-.6790009.927002,0,1.5540009.757,1.5540009,2.3120003,0,1.5510025-.6269989,2.3110008-1.5540009,2.3110008-.6529999,0-.987999-.3689995-1.1819992-.7229996h-.0179977l-.0250015.6609993h-.7170029c.0100021-.2729988.0370026-.5559998.0370026-.8279991v-5.7910004Z"/>
    <path class="cls-3" d="M127.3771973,57.2380104c-.1340027-.019001-.3190002-.019001-.5220032-.019001-.8739929,0-1.2869949.4169998-1.2869949.9370003,0,.4760017.2449951.7849998.7579956.7849998.6440048,0,1.0510025-.5200005,1.0510025-1.1389999v-.5639992ZM125.2231979,55.2520103c.3710022-.2369995.8290024-.3699989,1.2710037-.3699989.6609955,0,1.0579987.2819977,1.1999969.4230003.1949997.1949997.3880005.4679985.3880005,1.1040001v2.3459969c0,.2660027.0180054.531002.0339966.689003h-.6699982l-.0439987-.6080017h-.0179977c-.2020035.3440018-.5720062.6710014-1.2610016.6710014-.7410049,0-1.2970047-.4319992-1.2970047-1.2980003,0-.8740005.5740051-1.5170021,2.1170044-1.5170021h.4339981v-.204998c0-.3349991-.0270004-.5279999-.1679993-.7229996-.151001-.2019997-.4430008-.2820015-.75-.2820015-.4599991,0-.9000015.1860008-1.1579971.4669991l-.0780029-.6969986Z"/>
    <path class="cls-3" d="M129.1735992,55.9152069c0-.3289986-.0249939-.6539993-.0350037-.9710007h.7149963l.0270081.670002h.0180054c.2369995-.5110016.6179962-.7320023,1.1369934-.7320023.7850037,0,1.3150024.4500008,1.3150024,1.4379997v3.1230011h-.7409973v-2.9020004c0-.7159996-.2640076-1.0239983-.7420044-1.0239983-.5809937,0-.9530029.4049988-.9530029,1.2179985v2.7080002h-.7409973v-3.5279999Z"/>
  </g>
  <polygon class="cls-3" points="135.7559967 54.9442101 136.6199951 54.9442101 134.8560028 56.9552116 136.7779999 59.4432106 135.8619995 59.4432106 134.2290039 57.1762085 134.2119904 57.1762085 134.2119904 59.4432106 133.4689941 59.4432106 133.4689941 52.8252106 134.2119904 52.8252106 134.2119904 56.753212 135.7559967 54.9442101"/>
  <g class="cls-14">
    <path class="cls-3" d="M139.5838013,56.8503113c0-.9350014-.2910004-1.4029999-.8829956-1.4029999-.4750061,0-.9000092.3540001-.9170074,1.4029999h1.8000031ZM137.7837982,57.4143105c0,1.0429993.4069977,1.5270004,1.227005,1.5270004.368988,0,.776001-.1850014,1.0319977-.3689995l.0350037.6689987c-.3540039.1679993-.8120117.2649994-1.2620087.2649994-1.1909943,0-1.8099976-.8999977-1.8099976-2.3120003,0-1.4119987.6190033-2.310997,1.7400055-2.310997,1.0139923,0,1.5789948.8119965,1.5789948,2.1339989v.3969994h-2.5410004Z"/>
    <path class="cls-3" d="M141.2053986,55.9152069c0-.3289986-.0269928-.6539993-.0359955-.9710007h.7159882l.0250092.670002h.0180054c.2389984-.5110016.6179962-.7320023,1.1389923-.7320023.7850037,0,1.3150024.4500008,1.3150024,1.4379997v3.1230011h-.7409973v-2.9020004c0-.7159996-.2660065-1.0239983-.7420044-1.0239983-.5830078,0-.9530029.4049988-.9530029,1.2179985v2.7080002h-.7409973v-3.5279999Z"/>
  </g>
  <rect class="cls-4" x="166.9839935" y="43.1260071" width="24.3540039" height="16.3860016"/>
  <g class="cls-15">
    <path class="cls-5" d="M191.3374939,59.5116081v-2.8800011h-9.2839966c-.2519989,1.3230019-.4660034,2.4420013-.5490112,2.8800011h9.8330078Z"/>
  </g>
  <polygon class="cls-5" points="166.9833984 56.6312103 166.9833984 59.5112114 176.7463989 59.5112114 176.0953979 56.6312103 166.9833984 56.6312103"/>
  <g class="cls-16">
    <path class="cls-3" d="M171.7819977,49.8264084l-.7100067-2.9749985h6.0610046l2.0079956,8.7519989,1.2770081-5.6819992c.6239929-2.4860001.8600006-3.0699997,4.3710022-3.0699997h2.5269928s-.5110016,2.2910004-1.1439972,4.7749977c-.2420044.9659996-2.3540039.8510017-2.2449951-.0489998.0099945-.093998.1089935-.7579994.1869965-1.2329979.1159973-.6830025-.6860046-.7670021-.8289948-.0920029-.1030121.4820023-.5650024,2.9120026-.9990082,5.1669998h9.0510101v-12.2939987h-24.3530121v12.2939987h8.8379974l-1.2589874-5.586998-2.7810059-.0060005Z"/>
  </g>
</svg>